<?xml version="1.0" encoding="UTF-8" standalone="no"?>
<!DOCTYPE svg PUBLIC "-//W3C//DTD SVG 1.1//EN"
 "http://www.w3.org/Graphics/SVG/1.1/DTD/svg11.dtd">
<!-- Generated by graphviz version 2.26.3 (20100126.1600)
 -->
<!-- Title: G Pages: 1 -->
<svg width="541pt" height="680pt"
 viewBox="0.00 0.00 541.00 680.00" xmlns="http://www.w3.org/2000/svg" xmlns:xlink="http://www.w3.org/1999/xlink">
<g id="graph1" class="graph" transform="scale(1 1) rotate(0) translate(4 676)">
<title>G</title>
<!-- init -->
<g id="node1" class="node"><title>init</title>
<ellipse fill="lightgray" stroke="black" cx="453" cy="-654" rx="59.0322" ry="18"/>
<text text-anchor="middle" x="453" y="-649.4" font-family="Times Roman,serif" font-size="14.00">new client</text>
</g>
<!-- initconnect -->
<g id="node2" class="node"><title>initconnect</title>
<ellipse fill="white" stroke="black" cx="453" cy="-566" rx="69.7653" ry="18"/>
<text text-anchor="middle" x="453" y="-561.4" font-family="Times Roman,serif" font-size="14.00">first connect</text>
</g>
<!-- init&#45;&gt;initconnect -->
<g id="edge2" class="edge"><title>init&#45;&gt;initconnect</title>
<path fill="none" stroke="black" d="M453,-635.766C453,-623.849 453,-608.038 453,-594.482"/>
<polygon fill="black" stroke="black" points="456.5,-594.21 453,-584.21 449.5,-594.21 456.5,-594.21"/>
<text text-anchor="middle" x="488.5" y="-605.4" font-family="Times Roman,serif" font-size="14.00">on get/set</text>
</g>
<!-- connerr -->
<g id="node3" class="node"><title>connerr</title>
<ellipse fill="white" stroke="red" cx="360" cy="-492" rx="88.048" ry="18"/>
<text text-anchor="middle" x="360" y="-487.4" font-family="Times Roman,serif" font-size="14.00">connection error</text>
</g>
<!-- initconnect&#45;&gt;connerr -->
<g id="edge4" class="edge"><title>initconnect&#45;&gt;connerr</title>
<path fill="none" stroke="black" d="M431.43,-548.837C419.166,-539.078 403.617,-526.706 390.159,-515.998"/>
<polygon fill="black" stroke="black" points="392.103,-513.072 382.099,-509.584 387.745,-518.549 392.103,-513.072"/>
</g>
<!-- connected -->
<g id="node9" class="node"><title>connected</title>
<ellipse fill="white" stroke="black" cx="455" cy="-171" rx="59.8749" ry="18"/>
<text text-anchor="middle" x="455" y="-166.4" font-family="Times Roman,serif" font-size="14.00">connected</text>
</g>
<!-- initconnect&#45;&gt;connected -->
<g id="edge8" class="edge"><title>initconnect&#45;&gt;connected</title>
<path fill="none" stroke="black" d="M469.039,-548.271C480.167,-534.104 493,-513.176 493,-492 493,-492 493,-492 493,-281 493,-252.317 488.711,-244.989 479,-218 476.582,-211.281 473.412,-204.297 470.172,-197.832"/>
<polygon fill="black" stroke="black" points="473.194,-196.058 465.454,-188.823 466.993,-199.305 473.194,-196.058"/>
</g>
<!-- timeout -->
<g id="node4" class="node"><title>timeout</title>
<ellipse fill="white" stroke="red" cx="307" cy="-407" rx="99.201" ry="28.2843"/>
<text text-anchor="middle" x="307" y="-410.4" font-family="Times Roman,serif" font-size="14.00">server has</text>
<text text-anchor="middle" x="307" y="-394.4" font-family="Times Roman,serif" font-size="14.00">temporarily failed</text>
</g>
<!-- connerr&#45;&gt;timeout -->
<g id="edge6" class="edge"><title>connerr&#45;&gt;timeout</title>
<path fill="none" stroke="black" d="M348.76,-473.974C343.3,-465.217 336.529,-454.358 330.04,-443.95"/>
<polygon fill="black" stroke="black" points="332.951,-442.004 324.69,-435.37 327.011,-445.708 332.951,-442.004"/>
</g>
<!-- server_dead -->
<g id="node5" class="node"><title>server_dead</title>
<ellipse fill="white" stroke="red" cx="178" cy="-281" rx="77.0746" ry="28.2843"/>
<text text-anchor="middle" x="178" y="-284.4" font-family="Times Roman,serif" font-size="14.00">server is</text>
<text text-anchor="middle" x="178" y="-268.4" font-family="Times Roman,serif" font-size="14.00">marked dead</text>
</g>
<!-- timeout&#45;&gt;server_dead -->
<g id="edge12" class="edge"><title>timeout&#45;&gt;server_dead</title>
<path fill="none" stroke="black" d="M224.479,-391.059C192.955,-383.15 162.314,-372.581 153,-360 143.872,-347.67 146.687,-331.904 153.079,-317.704"/>
<polygon fill="black" stroke="black" points="156.271,-319.148 157.706,-308.651 150.038,-315.962 156.271,-319.148"/>
<text text-anchor="middle" x="225.5" y="-347.4" font-family="Times Roman,serif" font-size="14.00">after remove_failed</text>
<text text-anchor="middle" x="225.5" y="-331.4" font-family="Times Roman,serif" font-size="14.00">connection attempts</text>
</g>
<!-- new -->
<g id="node8" class="node"><title>new</title>
<ellipse fill="white" stroke="black" cx="349" cy="-281" rx="30.1869" ry="18"/>
<text text-anchor="middle" x="349" y="-276.4" font-family="Times Roman,serif" font-size="14.00">new</text>
</g>
<!-- timeout&#45;&gt;new -->
<g id="edge16" class="edge"><title>timeout&#45;&gt;new</title>
<path fill="none" stroke="black" d="M302.681,-378.321C301.505,-362.919 301.929,-343.888 308,-328 311.52,-318.789 317.723,-310.184 324.256,-302.919"/>
<polygon fill="black" stroke="black" points="326.909,-305.211 331.362,-295.597 321.886,-300.336 326.909,-305.211"/>
<text text-anchor="middle" x="374.5" y="-347.4" font-family="Times Roman,serif" font-size="14.00">after retry_timeout</text>
<text text-anchor="middle" x="374.5" y="-331.4" font-family="Times Roman,serif" font-size="14.00">(or dead_timeout)</text>
</g>
<!-- removed -->
<g id="node6" class="node"><title>removed</title>
<ellipse fill="white" stroke="red" cx="185" cy="-171" rx="89.8026" ry="28.2843"/>
<text text-anchor="middle" x="185" y="-174.4" font-family="Times Roman,serif" font-size="14.00">server removed</text>
<text text-anchor="middle" x="185" y="-158.4" font-family="Times Roman,serif" font-size="14.00">from rotation</text>
</g>
<!-- server_dead&#45;&gt;removed -->
<g id="edge14" class="edge"><title>server_dead&#45;&gt;removed</title>
<path fill="none" stroke="black" d="M179.821,-252.386C180.641,-239.501 181.622,-224.085 182.509,-210.152"/>
<polygon fill="black" stroke="black" points="186.022,-210.055 183.164,-199.853 179.036,-209.61 186.022,-210.055"/>
</g>
<!-- added -->
<g id="node7" class="node"><title>added</title>
<ellipse fill="white" stroke="black" cx="104" cy="-29" rx="103.945" ry="28.2843"/>
<text text-anchor="middle" x="104" y="-32.4" font-family="Times Roman,serif" font-size="14.00">server added back</text>
<text text-anchor="middle" x="104" y="-16.4" font-family="Times Roman,serif" font-size="14.00">into rotation</text>
</g>
<!-- removed&#45;&gt;added -->
<g id="edge18" class="edge"><title>removed&#45;&gt;added</title>
<path fill="none" stroke="black" d="M168.997,-142.945C156.487,-121.014 138.982,-90.3265 125.29,-66.3226"/>
<polygon fill="black" stroke="black" points="128.242,-64.4344 120.247,-57.4824 122.162,-67.9028 128.242,-64.4344"/>
<text text-anchor="middle" x="226.5" y="-111.4" font-family="Times Roman,serif" font-size="14.00">after dead_timeout,</text>
<text text-anchor="middle" x="226.5" y="-95.4" font-family="Times Roman,serif" font-size="14.00">make a single</text>
<text text-anchor="middle" x="226.5" y="-79.4" font-family="Times Roman,serif" font-size="14.00">connection attempt</text>
</g>
<!-- added&#45;&gt;timeout -->
<g id="edge20" class="edge"><title>added&#45;&gt;timeout</title>
<path fill="none" stroke="black" d="M94.5567,-57.75C78.9475,-110.526 53.1425,-225.217 92,-310 112.627,-355.006 161.724,-379.137 207.799,-392.072"/>
<polygon fill="black" stroke="black" points="207.011,-395.484 217.574,-394.666 208.806,-388.718 207.011,-395.484"/>
</g>
<!-- new&#45;&gt;connected -->
<g id="edge10" class="edge"><title>new&#45;&gt;connected</title>
<path fill="none" stroke="black" d="M351.392,-262.988C353.993,-249.358 359.311,-230.853 370,-218 379.899,-206.096 393.631,-196.686 407.173,-189.511"/>
<polygon fill="black" stroke="black" points="409.067,-192.478 416.468,-184.898 405.955,-186.208 409.067,-192.478"/>
<text text-anchor="middle" x="405.5" y="-221.4" font-family="Times Roman,serif" font-size="14.00">on get/set</text>
</g>
<!-- connected&#45;&gt;timeout -->
<g id="edge24" class="edge"><title>connected&#45;&gt;timeout</title>
<path fill="none" stroke="black" d="M459.578,-189.122C467.654,-225.641 480.117,-308.937 441,-360 433.982,-369.162 414.174,-377.908 391.87,-385.318"/>
<polygon fill="black" stroke="black" points="390.65,-382.034 382.189,-388.41 392.78,-388.702 390.65,-382.034"/>
</g>
<!-- connected&#45;&gt;connected -->
<g id="edge22" class="edge"><title>connected&#45;&gt;connected</title>
<path fill="none" stroke="black" d="M504.887,-181.119C520.602,-180.965 533,-177.592 533,-171 533,-165.902 525.584,-162.729 514.952,-161.481"/>
<polygon fill="black" stroke="black" points="515.078,-157.983 504.887,-160.881 514.661,-164.97 515.078,-157.983"/>
</g>
</g>
</svg>
